<svg width="580" height="400" xmlns="http://www.w3.org/2000/svg">
 <!-- Created with SVG Editor - http://github.com/mzalive/SVG Editor/ -->

 <g>
  <title>background</title>
  <rect fill="#fff" id="canvas_background" height="402" width="582" y="-1" x="-1"/>
  <g display="none" overflow="visible" y="0" x="0" height="100%" width="100%" id="canvasGrid">
   <rect fill="url(#gridpattern)" stroke-width="0" y="0" x="0" height="100%" width="100%"/>
  </g>
 </g>
 <g>
  <title>Layer 1</title>
  <g id="svg_24">
   <g transform="matrix(0.18986051199318865,0,0,0.18986051199318865,0,0) " id="svg_7">
    <g id="svg_5">
     <polygon stroke="#9fa9a9" fill="#9fa9a9" id="svg_8" points="1433.087013244629,1168.1549072265625 1550.3870086669922,1053.4049072265625 1433.087013244629,936.1049194335938 1468.787010192871,900.4049072265625 1621.7870178222656,1053.4049072265625 1468.787010192871,1206.4049072265625 "/>
    </g>
   </g>
   <g transform="matrix(0.18986051199318865,0,0,0.18986051199318865,0,0) " id="svg_9"/>
   <g transform="matrix(0.18986051199318865,0,0,0.18986051199318865,0,0) " id="svg_10"/>
   <g transform="matrix(0.18986051199318865,0,0,0.18986051199318865,0,0) " id="svg_11"/>
   <g transform="matrix(0.18986051199318865,0,0,0.18986051199318865,0,0) " id="svg_12"/>
   <g transform="matrix(0.18986051199318865,0,0,0.18986051199318865,0,0) " id="svg_13"/>
   <g transform="matrix(0.18986051199318865,0,0,0.18986051199318865,0,0) " id="svg_14"/>
   <g transform="matrix(0.18986051199318865,0,0,0.18986051199318865,0,0) " id="svg_15"/>
   <g transform="matrix(0.18986051199318865,0,0,0.18986051199318865,0,0) " id="svg_16"/>
   <g transform="matrix(0.18986051199318865,0,0,0.18986051199318865,0,0) " id="svg_17"/>
   <g transform="matrix(0.18986051199318865,0,0,0.18986051199318865,0,0) " id="svg_18"/>
   <g transform="matrix(0.18986051199318865,0,0,0.18986051199318865,0,0) " id="svg_19"/>
   <g transform="matrix(0.18986051199318865,0,0,0.18986051199318865,0,0) " id="svg_20"/>
   <g transform="matrix(0.18986051199318865,0,0,0.18986051199318865,0,0) " id="svg_21"/>
   <g transform="matrix(0.18986051199318865,0,0,0.18986051199318865,0,0) " id="svg_22"/>
   <g transform="matrix(0.18986051199318865,0,0,0.18986051199318865,0,0) " id="svg_23"/>
  </g>
 </g>
</svg>